<mxfile host="app.diagrams.net" modified="2023-06-27T01:36:42.026Z" agent="Mozilla/5.0 (Windows NT 10.0; Win64; x64) AppleWebKit/537.36 (KHTML, like Gecko) Chrome/114.0.0.0 Safari/537.36" etag="PKES-FEwSNjZQOLGUJBB" version="21.5.0" type="device">
  <diagram name="PÃ¡gina-1" id="bj4XQp-wi4xuRHd3fd1C">
    <mxGraphModel dx="1050" dy="573" grid="1" gridSize="10" guides="1" tooltips="1" connect="1" arrows="1" fold="1" page="1" pageScale="1" pageWidth="827" pageHeight="1169" math="0" shadow="0">
      <root>
        <mxCell id="0" />
        <mxCell id="1" parent="0" />
        <mxCell id="_GbngZLntbzM7L3Xs-Jt-8" style="edgeStyle=orthogonalEdgeStyle;rounded=0;orthogonalLoop=1;jettySize=auto;html=1;" edge="1" parent="1" source="_GbngZLntbzM7L3Xs-Jt-1" target="_GbngZLntbzM7L3Xs-Jt-2">
          <mxGeometry relative="1" as="geometry" />
        </mxCell>
        <mxCell id="_GbngZLntbzM7L3Xs-Jt-1" value="Amazon S3" style="sketch=0;outlineConnect=0;fontColor=#232F3E;gradientColor=none;strokeColor=#ffffff;fillColor=#232F3E;dashed=0;verticalLabelPosition=middle;verticalAlign=bottom;align=center;html=1;whiteSpace=wrap;fontSize=10;fontStyle=1;spacing=3;shape=mxgraph.aws4.productIcon;prIcon=mxgraph.aws4.s3;" vertex="1" parent="1">
          <mxGeometry x="80" y="160" width="80" height="100" as="geometry" />
        </mxCell>
        <mxCell id="_GbngZLntbzM7L3Xs-Jt-9" style="edgeStyle=orthogonalEdgeStyle;rounded=0;orthogonalLoop=1;jettySize=auto;html=1;" edge="1" parent="1" source="_GbngZLntbzM7L3Xs-Jt-2" target="_GbngZLntbzM7L3Xs-Jt-3">
          <mxGeometry relative="1" as="geometry" />
        </mxCell>
        <mxCell id="_GbngZLntbzM7L3Xs-Jt-2" value="" style="sketch=0;outlineConnect=0;fontColor=#232F3E;gradientColor=none;fillColor=#4D27AA;strokeColor=none;dashed=0;verticalLabelPosition=bottom;verticalAlign=top;align=center;html=1;fontSize=12;fontStyle=0;aspect=fixed;pointerEvents=1;shape=mxgraph.aws4.glue_crawlers;" vertex="1" parent="1">
          <mxGeometry x="240" y="171" width="78" height="78" as="geometry" />
        </mxCell>
        <mxCell id="_GbngZLntbzM7L3Xs-Jt-10" style="edgeStyle=orthogonalEdgeStyle;rounded=0;orthogonalLoop=1;jettySize=auto;html=1;" edge="1" parent="1" source="_GbngZLntbzM7L3Xs-Jt-3" target="_GbngZLntbzM7L3Xs-Jt-4">
          <mxGeometry relative="1" as="geometry" />
        </mxCell>
        <mxCell id="_GbngZLntbzM7L3Xs-Jt-3" value="Amazon Athena" style="sketch=0;outlineConnect=0;fontColor=#232F3E;gradientColor=none;strokeColor=#ffffff;fillColor=#232F3E;dashed=0;verticalLabelPosition=middle;verticalAlign=bottom;align=center;html=1;whiteSpace=wrap;fontSize=10;fontStyle=1;spacing=3;shape=mxgraph.aws4.productIcon;prIcon=mxgraph.aws4.athena;" vertex="1" parent="1">
          <mxGeometry x="400" y="155" width="80" height="110" as="geometry" />
        </mxCell>
        <mxCell id="_GbngZLntbzM7L3Xs-Jt-11" style="edgeStyle=orthogonalEdgeStyle;rounded=0;orthogonalLoop=1;jettySize=auto;html=1;" edge="1" parent="1" source="_GbngZLntbzM7L3Xs-Jt-4" target="_GbngZLntbzM7L3Xs-Jt-6">
          <mxGeometry relative="1" as="geometry" />
        </mxCell>
        <mxCell id="_GbngZLntbzM7L3Xs-Jt-4" value="AWS Glue" style="sketch=0;outlineConnect=0;fontColor=#232F3E;gradientColor=none;strokeColor=#ffffff;fillColor=#232F3E;dashed=0;verticalLabelPosition=middle;verticalAlign=bottom;align=center;html=1;whiteSpace=wrap;fontSize=10;fontStyle=1;spacing=3;shape=mxgraph.aws4.productIcon;prIcon=mxgraph.aws4.glue;" vertex="1" parent="1">
          <mxGeometry x="560" y="160" width="80" height="100" as="geometry" />
        </mxCell>
        <mxCell id="_GbngZLntbzM7L3Xs-Jt-5" value="VPC" style="sketch=0;outlineConnect=0;gradientColor=none;html=1;whiteSpace=wrap;fontSize=12;fontStyle=0;shape=mxgraph.aws4.group;grIcon=mxgraph.aws4.group_vpc;strokeColor=#879196;fillColor=none;verticalAlign=top;align=left;spacingLeft=30;fontColor=#879196;dashed=0;" vertex="1" parent="1">
          <mxGeometry x="720" y="120" width="160" height="160" as="geometry" />
        </mxCell>
        <mxCell id="_GbngZLntbzM7L3Xs-Jt-6" value="Amazon Redshift" style="sketch=0;outlineConnect=0;fontColor=#232F3E;gradientColor=none;strokeColor=#ffffff;fillColor=#232F3E;dashed=0;verticalLabelPosition=middle;verticalAlign=bottom;align=center;html=1;whiteSpace=wrap;fontSize=10;fontStyle=1;spacing=3;shape=mxgraph.aws4.productIcon;prIcon=mxgraph.aws4.redshift;" vertex="1" parent="1">
          <mxGeometry x="760" y="155" width="80" height="110" as="geometry" />
        </mxCell>
        <mxCell id="_GbngZLntbzM7L3Xs-Jt-12" value="Crawler" style="text;html=1;align=center;verticalAlign=middle;resizable=0;points=[];autosize=1;strokeColor=none;fillColor=none;" vertex="1" parent="1">
          <mxGeometry x="249" y="250" width="60" height="30" as="geometry" />
        </mxCell>
      </root>
    </mxGraphModel>
  </diagram>
</mxfile>
